# Blender v2.74 (sub 0) OBJ File: 'stolpe.blend'
# www.blender.org
o Cylinder
v 0.236143 1.383597 0.485127
v 0.236143 2.396811 -0.020097
v 0.236143 1.383597 -0.528088
v 0.236143 2.396811 -0.022863
v 0.238798 1.383597 0.485127
v 0.238798 2.396811 -0.020097
v 0.238798 1.383597 -0.528088
v 0.238798 2.396811 -0.022863
v 0.170000 -0.253323 -0.062606
v 0.170000 2.083771 -0.062606
v 0.182214 -0.253323 -0.061403
v 0.182214 2.083771 -0.061403
v 0.193958 -0.253323 -0.057840
v 0.193958 2.083771 -0.057840
v 0.204782 -0.253323 -0.052055
v 0.204782 2.083771 -0.052055
v 0.214269 -0.253323 -0.044269
v 0.214269 2.083771 -0.044269
v 0.222055 -0.253323 -0.034782
v 0.222055 2.083771 -0.034782
v 0.227840 -0.253323 -0.023958
v 0.227840 2.083771 -0.023958
v 0.231403 -0.253323 -0.012214
v 0.231403 2.083771 -0.012214
v 0.232606 -0.253323 -0.000000
v 0.232606 2.083771 -0.000000
v 0.231403 -0.253323 0.012214
v 0.231403 2.083771 0.012214
v 0.227840 -0.253323 0.023958
v 0.227840 2.083771 0.023958
v 0.222055 -0.253323 0.034782
v 0.222055 2.083771 0.034782
v 0.214269 -0.253323 0.044269
v 0.214269 2.083771 0.044269
v 0.204782 -0.253323 0.052055
v 0.204782 2.083771 0.052055
v 0.193958 -0.253323 0.057840
v 0.193958 2.083771 0.057840
v 0.182214 -0.253323 0.061403
v 0.182214 2.083771 0.061403
v 0.170000 -0.253323 0.062606
v 0.170000 2.083771 0.062606
v 0.157786 -0.253323 0.061403
v 0.157786 2.083771 0.061403
v 0.146042 -0.253323 0.057840
v 0.146042 2.083771 0.057840
v 0.135218 -0.253323 0.052055
v 0.135218 2.083771 0.052055
v 0.125731 -0.253323 0.044269
v 0.125731 2.083771 0.044269
v 0.117945 -0.253323 0.034782
v 0.117945 2.083771 0.034782
v 0.112160 -0.253323 0.023958
v 0.112160 2.083771 0.023958
v 0.108597 -0.253323 0.012214
v 0.108597 2.083771 0.012214
v 0.107394 -0.253323 -0.000000
v 0.107394 2.083771 -0.000000
v 0.108597 -0.253323 -0.012214
v 0.108597 2.083771 -0.012214
v 0.112160 -0.253323 -0.023958
v 0.112160 2.083771 -0.023958
v 0.117945 -0.253323 -0.034782
v 0.117945 2.083771 -0.034782
v 0.125731 -0.253323 -0.044269
v 0.125731 2.083771 -0.044269
v 0.135218 -0.253323 -0.052055
v 0.135218 2.083771 -0.052055
v 0.146042 -0.253323 -0.057840
v 0.146042 2.083771 -0.057840
v 0.157787 -0.253323 -0.061403
v 0.157787 2.083771 -0.061403
vt 0.787781 0.723688
vt 0.925050 0.479179
vt 0.640285 0.479179
vt 0.384836 0.322966
vt 0.785500 0.036474
vt 0.946944 0.000119
vt 0.410934 0.694352
vt 0.271302 0.451429
vt 0.553706 0.451429
vt 0.390547 0.613484
vt 0.000119 0.000120
vt 0.066844 0.020984
vt 0.395263 0.613938
vt 0.187862 0.984064
vt 0.176674 0.984064
vt 0.176674 0.000068
vt 0.165486 0.984063
vt 0.165486 0.000068
vt 0.154297 0.984063
vt 0.154298 0.000067
vt 0.143109 0.984062
vt 0.143110 0.000067
vt 0.131921 0.984062
vt 0.131921 0.000066
vt 0.120733 0.984062
vt 0.120733 0.000066
vt 0.109544 0.984061
vt 0.109545 0.000066
vt 0.098356 0.984061
vt 0.098356 0.000065
vt 0.087168 0.984061
vt 0.087168 0.000065
vt 0.075980 0.984061
vt 0.075980 0.000065
vt 0.064791 0.984060
vt 0.064792 0.000065
vt 0.053603 0.984060
vt 0.053603 0.000065
vt 0.042415 0.984060
vt 0.042415 0.000064
vt 0.031227 0.984060
vt 0.031227 0.000064
vt 0.020038 0.984060
vt 0.020038 0.000064
vt 0.008850 0.984060
vt 0.008850 0.000064
vt 0.176674 0.988726
vt 0.165486 0.988726
vt 0.165486 0.004730
vt 0.154298 0.988726
vt 0.154298 0.004730
vt 0.143109 0.988725
vt 0.143110 0.004730
vt 0.131921 0.988725
vt 0.131921 0.004730
vt 0.120733 0.988725
vt 0.120733 0.004730
vt 0.109545 0.988725
vt 0.109545 0.004729
vt 0.098356 0.988725
vt 0.098356 0.004729
vt 0.087168 0.988725
vt 0.087168 0.004729
vt 0.075980 0.988725
vt 0.075980 0.004729
vt 0.064792 0.988725
vt 0.064792 0.004729
vt 0.053603 0.988725
vt 0.053603 0.004729
vt 0.042415 0.988725
vt 0.042415 0.004729
vt 0.031227 0.988726
vt 0.031227 0.004729
vt 0.020039 0.988726
vt 0.020038 0.004729
vt 0.885239 0.290862
vt 0.695350 0.309564
vt 0.676647 0.119674
vt 0.188038 0.990263
vt 0.176850 0.990263
vt 0.176851 0.006268
vt 0.008850 0.988726
vt 0.008850 0.004730
vt 0.691804 0.466055
vt 0.881693 0.484756
vt 0.862991 0.674645
vt 0.777266 0.723688
vt 0.413181 0.694745
vt 0.387362 0.321558
vt 0.187863 0.000069
vt 0.176674 0.004731
vt 0.915215 0.192043
vt 0.899933 0.268870
vt 0.915215 0.218493
vt 0.910055 0.244434
vt 0.899933 0.141666
vt 0.910055 0.166102
vt 0.885239 0.119674
vt 0.820109 0.076156
vt 0.844545 0.086278
vt 0.866536 0.100972
vt 0.767719 0.070996
vt 0.794168 0.070996
vt 0.741777 0.076156
vt 0.695350 0.100972
vt 0.717342 0.086278
vt 0.651831 0.166102
vt 0.661953 0.141666
vt 0.646671 0.192043
vt 0.661953 0.268869
vt 0.651831 0.244434
vt 0.646671 0.218493
vt 0.676647 0.290861
vt 0.794168 0.339540
vt 0.717341 0.324258
vt 0.767719 0.339540
vt 0.741777 0.334380
vt 0.844545 0.324258
vt 0.820109 0.334380
vt 0.866536 0.309564
vt 0.188039 0.006268
vt 0.658407 0.506749
vt 0.673101 0.484757
vt 0.643125 0.557126
vt 0.648285 0.531185
vt 0.648285 0.609515
vt 0.643125 0.583575
vt 0.673101 0.655943
vt 0.658407 0.633951
vt 0.764172 0.704622
vt 0.691803 0.674645
vt 0.738231 0.699461
vt 0.713795 0.689340
vt 0.790621 0.704622
vt 0.840999 0.689340
vt 0.816562 0.699462
vt 0.896388 0.633951
vt 0.881693 0.655943
vt 0.911669 0.583575
vt 0.906509 0.609515
vt 0.911669 0.557125
vt 0.896388 0.506748
vt 0.906509 0.531184
vt 0.840999 0.451360
vt 0.862990 0.466054
vt 0.816563 0.441238
vt 0.738231 0.441238
vt 0.764172 0.436078
vt 0.790621 0.436078
vt 0.713795 0.451360
vn -1.000000 0.000000 0.000000
vn 0.000000 0.446200 -0.894900
vn 1.000000 0.000000 0.000000
vn 0.000000 0.446200 0.894900
vn 0.000000 -1.000000 0.000000
vn 0.000000 1.000000 0.000000
vn 0.098000 0.000000 -0.995200
vn 0.290300 0.000000 -0.956900
vn 0.471400 0.000000 -0.881900
vn 0.634400 0.000000 -0.773000
vn 0.773000 0.000000 -0.634400
vn 0.881900 0.000000 -0.471400
vn 0.956900 0.000000 -0.290300
vn 0.995200 0.000000 -0.098000
vn 0.995200 0.000000 0.098000
vn 0.956900 0.000000 0.290300
vn 0.881900 0.000000 0.471400
vn 0.773000 0.000000 0.634400
vn 0.634400 0.000000 0.773000
vn 0.471400 0.000000 0.881900
vn 0.290300 0.000000 0.956900
vn 0.098000 0.000000 0.995200
vn -0.098000 0.000000 0.995200
vn -0.290300 0.000000 0.956900
vn -0.471400 0.000000 0.881900
vn -0.634400 0.000000 0.773000
vn -0.773000 0.000000 0.634400
vn -0.881900 0.000000 0.471400
vn -0.956900 0.000000 0.290300
vn -0.995200 0.000000 0.098000
vn -0.995200 0.000000 -0.098000
vn -0.956900 0.000000 -0.290300
vn -0.881900 0.000000 -0.471400
vn -0.773000 0.000000 -0.634400
vn -0.634400 0.000000 -0.773000
vn -0.471400 0.000000 -0.881900
vn -0.098000 0.000000 -0.995200
vn -0.290300 0.000000 -0.956900
vn 0.000000 1.000000 0.000100
vn 0.000000 1.000000 -0.000100
s off
f 4/1/1 3/2/1 1/3/1
f 8/4/2 7/5/2 3/6/2
f 6/7/3 5/8/3 7/9/3
f 2/10/4 1/11/4 5/12/4
f 3/6/5 7/5/5 5/12/5
f 8/4/6 4/13/6 2/10/6
f 10/14/7 12/15/7 11/16/7
f 12/15/8 14/17/8 13/18/8
f 14/17/9 16/19/9 15/20/9
f 16/19/10 18/21/10 17/22/10
f 18/21/11 20/23/11 19/24/11
f 20/23/12 22/25/12 21/26/12
f 22/25/13 24/27/13 23/28/13
f 24/27/14 26/29/14 25/30/14
f 26/29/15 28/31/15 27/32/15
f 28/31/16 30/33/16 29/34/16
f 30/33/17 32/35/17 31/36/17
f 32/35/18 34/37/18 33/38/18
f 34/37/19 36/39/19 35/40/19
f 36/39/20 38/41/20 37/42/20
f 38/41/21 40/43/21 39/44/21
f 40/43/22 42/45/22 41/46/22
f 42/47/23 44/48/23 43/49/23
f 44/48/24 46/50/24 45/51/24
f 46/50/25 48/52/25 47/53/25
f 48/52/26 50/54/26 49/55/26
f 50/54/27 52/56/27 51/57/27
f 52/56/28 54/58/28 53/59/28
f 54/58/29 56/60/29 55/61/29
f 56/60/30 58/62/30 57/63/30
f 58/62/31 60/64/31 59/65/31
f 60/64/32 62/66/32 61/67/32
f 62/66/33 64/68/33 63/69/33
f 64/68/34 66/70/34 65/71/34
f 66/70/35 68/72/35 67/73/35
f 68/72/36 70/74/36 69/75/36
f 12/76/6 60/77/6 44/78/6
f 72/79/37 10/80/37 9/81/37
f 70/74/38 72/82/38 71/83/38
f 9/84/5 25/85/5 41/86/5
f 2/87/1 4/1/1 1/3/1
f 4/13/2 8/4/2 3/6/2
f 8/88/3 6/7/3 7/9/3
f 6/89/4 2/10/4 5/12/4
f 1/11/5 3/6/5 5/12/5
f 6/89/6 8/4/6 2/10/6
f 9/90/7 10/14/7 11/16/7
f 11/16/8 12/15/8 13/18/8
f 13/18/9 14/17/9 15/20/9
f 15/20/10 16/19/10 17/22/10
f 17/22/11 18/21/11 19/24/11
f 19/24/12 20/23/12 21/26/12
f 21/26/13 22/25/13 23/28/13
f 23/28/14 24/27/14 25/30/14
f 25/30/15 26/29/15 27/32/15
f 27/32/16 28/31/16 29/34/16
f 29/34/17 30/33/17 31/36/17
f 31/36/18 32/35/18 33/38/18
f 33/38/19 34/37/19 35/40/19
f 35/40/20 36/39/20 37/42/20
f 37/42/21 38/41/21 39/44/21
f 39/44/22 40/43/22 41/46/22
f 41/91/23 42/47/23 43/49/23
f 43/49/24 44/48/24 45/51/24
f 45/51/25 46/50/25 47/53/25
f 47/53/26 48/52/26 49/55/26
f 49/55/27 50/54/27 51/57/27
f 51/57/28 52/56/28 53/59/28
f 53/59/29 54/58/29 55/61/29
f 55/61/30 56/60/30 57/63/30
f 57/63/31 58/62/31 59/65/31
f 59/65/32 60/64/32 61/67/32
f 61/67/33 62/66/33 63/69/33
f 63/69/34 64/68/34 65/71/34
f 65/71/35 66/70/35 67/73/35
f 67/73/36 68/72/36 69/75/36
f 20/92/6 14/93/6 12/76/6
f 20/92/39 18/94/39 16/95/39
f 24/96/40 22/97/40 20/92/40
f 20/92/6 26/98/6 24/96/6
f 32/99/6 30/100/6 28/101/6
f 36/102/40 34/103/40 32/99/40
f 44/78/6 38/104/6 36/102/6
f 44/78/39 42/105/39 40/106/39
f 48/107/39 46/108/39 44/78/39
f 44/78/40 50/109/40 48/107/40
f 56/110/6 54/111/6 52/112/6
f 60/77/6 58/113/6 56/110/6
f 68/114/6 62/115/6 60/77/6
f 68/114/6 66/116/6 64/117/6
f 72/118/6 70/119/6 68/114/6
f 68/114/40 10/120/40 72/118/40
f 20/92/6 16/95/6 14/93/6
f 28/101/6 26/98/6 20/92/6
f 44/78/6 32/99/6 28/101/6
f 44/78/6 40/106/6 38/104/6
f 52/112/6 50/109/6 44/78/6
f 44/78/6 56/110/6 52/112/6
f 68/114/6 64/117/6 62/115/6
f 12/76/6 10/120/6 68/114/6
f 44/78/6 20/92/6 12/76/6
f 44/78/6 36/102/6 32/99/6
f 60/77/6 56/110/6 44/78/6
f 12/76/6 68/114/6 60/77/6
f 44/78/6 28/101/6 20/92/6
f 71/121/37 72/79/37 9/81/37
f 69/75/38 70/74/38 71/83/38
f 69/122/5 71/123/5 9/84/5
f 65/124/5 67/125/5 69/122/5
f 61/126/5 63/127/5 65/124/5
f 57/128/5 59/129/5 61/126/5
f 49/130/5 55/131/5 57/128/5
f 49/130/5 51/132/5 53/133/5
f 41/86/5 47/134/5 49/130/5
f 41/86/5 43/135/5 45/136/5
f 37/137/5 39/138/5 41/86/5
f 33/139/5 35/140/5 37/137/5
f 25/85/5 31/141/5 33/139/5
f 25/85/5 27/142/5 29/143/5
f 21/144/5 23/145/5 25/85/5
f 25/85/5 19/146/5 21/144/5
f 13/147/5 15/148/5 17/149/5
f 9/84/5 11/150/5 13/147/5
f 65/124/5 69/122/5 9/84/5
f 9/84/5 61/126/5 65/124/5
f 49/130/5 53/133/5 55/131/5
f 41/86/5 45/136/5 47/134/5
f 33/139/5 37/137/5 41/86/5
f 25/85/5 29/143/5 31/141/5
f 17/149/5 19/146/5 25/85/5
f 9/84/5 13/147/5 17/149/5
f 57/128/5 61/126/5 9/84/5
f 9/84/5 49/130/5 57/128/5
f 25/85/5 33/139/5 41/86/5
f 9/84/5 17/149/5 25/85/5
f 41/86/5 49/130/5 9/84/5
